<?xml version="1.0" standalone="no"?>
<!DOCTYPE svg PUBLIC "-//W3C//DTD SVG 20010904//EN"
 "http://www.w3.org/TR/2001/REC-SVG-20010904/DTD/svg10.dtd">
<svg version="1.0" xmlns="http://www.w3.org/2000/svg"
 width="2242.000000pt" height="3330.000000pt" viewBox="0 0 2242.000000 3330.000000"
 preserveAspectRatio="xMidYMid meet">

<g transform="translate(0.000000,3330.000000) scale(0.100000,-0.100000)"
fill="#000000" stroke="none">
<path d="M8391 33234 c-11 -31 -21 -62 -21 -70 0 -8 -7 -17 -16 -21 -8 -3 -13
-12 -10 -19 5 -13 -6 -52 -35 -119 -6 -16 -13 -34 -13 -40 -4 -22 -29 -101
-39 -120 -6 -11 -12 -27 -13 -35 -6 -43 -33 -123 -44 -130 -7 -4 -9 -16 -6
-27 3 -10 -1 -28 -9 -39 -8 -10 -15 -29 -15 -42 0 -13 -7 -36 -15 -53 -9 -16
-14 -33 -11 -38 7 -11 -23 -122 -40 -149 -8 -12 -12 -27 -9 -32 6 -9 -5 -54
-22 -100 -4 -8 -5 -21 -4 -27 1 -7 -3 -22 -9 -34 -7 -11 -13 -38 -14 -58 -2
-21 -10 -53 -20 -71 -9 -19 -14 -42 -11 -51 3 -10 -1 -31 -9 -47 -8 -16 -13
-32 -9 -35 3 -4 0 -28 -7 -54 -7 -26 -16 -70 -20 -98 -14 -89 -41 -229 -48
-240 -3 -5 -7 -36 -8 -67 -2 -32 -6 -63 -10 -70 -5 -7 -10 -33 -11 -58 -2 -25
-11 -64 -19 -88 -9 -23 -13 -50 -9 -59 6 -16 -11 -192 -22 -223 -3 -8 -7 -42
-9 -74 -3 -33 -9 -65 -15 -72 -5 -6 -7 -29 -4 -50 3 -22 -1 -106 -9 -189 -9
-82 -18 -202 -22 -265 -3 -63 -9 -119 -12 -125 -10 -15 -9 -1225 0 -1231 4 -3
8 -29 8 -57 0 -29 7 -128 16 -222 8 -93 16 -215 18 -271 1 -55 6 -105 9 -111
4 -6 9 -42 11 -79 2 -38 6 -76 9 -84 11 -31 27 -201 21 -224 -3 -13 -1 -33 5
-44 12 -23 45 -220 45 -277 1 -22 4 -44 7 -50 4 -5 12 -41 18 -80 7 -38 17
-86 22 -106 5 -20 9 -52 9 -71 0 -20 7 -55 15 -78 8 -24 14 -55 13 -69 -1 -14
4 -37 11 -49 7 -13 10 -35 6 -49 -3 -14 -1 -31 6 -39 6 -8 8 -14 5 -14 -4 0
-2 -8 3 -19 11 -20 62 -239 66 -281 2 -14 6 -32 9 -41 4 -9 9 -29 11 -45 2
-16 4 -30 6 -31 1 -2 2 -6 3 -10 1 -5 5 -14 9 -20 4 -7 9 -27 11 -45 3 -36 19
-98 41 -166 8 -23 12 -49 8 -57 -3 -9 1 -23 8 -32 13 -15 37 -92 43 -138 1
-11 8 -33 15 -50 7 -16 14 -41 15 -55 2 -14 8 -35 15 -48 6 -12 9 -27 6 -32
-3 -5 4 -25 15 -46 12 -20 19 -43 16 -51 -3 -8 1 -25 10 -37 8 -13 14 -28 13
-32 -1 -5 5 -26 14 -46 10 -21 17 -46 17 -57 0 -11 5 -23 11 -27 6 -3 8 -15 5
-27 -3 -12 3 -30 15 -45 10 -14 19 -32 19 -41 0 -9 11 -47 25 -85 14 -38 23
-71 20 -74 -3 -3 0 -11 6 -18 15 -19 49 -116 43 -125 -3 -5 5 -22 17 -38 12
-16 19 -36 16 -45 -3 -8 0 -20 8 -26 8 -6 11 -18 8 -26 -3 -8 -1 -14 4 -14 5
0 17 -24 27 -52 11 -29 29 -79 42 -110 13 -32 25 -66 27 -75 2 -10 15 -44 30
-76 15 -32 27 -61 27 -66 0 -5 12 -35 26 -67 14 -33 33 -75 41 -94 8 -19 26
-59 39 -88 14 -29 22 -56 20 -61 -3 -5 1 -14 9 -21 11 -9 31 -52 40 -90 1 -3
12 -27 25 -55 13 -27 25 -52 25 -55 1 -3 13 -30 27 -60 14 -30 29 -62 32 -70
3 -8 15 -30 27 -49 11 -18 17 -36 14 -39 -3 -3 2 -14 11 -24 15 -16 62 -116
68 -144 1 -7 7 -18 13 -26 13 -15 36 -72 31 -74 -2 -1 5 -10 14 -20 14 -16 38
-63 42 -84 1 -3 19 -32 40 -64 39 -60 59 -102 61 -123 0 -6 7 -19 16 -30 9
-10 40 -63 69 -117 28 -55 63 -117 76 -138 13 -20 24 -40 24 -43 0 -3 11 -22
23 -43 13 -20 35 -57 49 -82 14 -25 54 -92 90 -150 36 -58 67 -110 69 -116 5
-12 88 -141 227 -352 56 -86 102 -158 102 -160 0 -3 15 -23 33 -46 19 -23 58
-76 88 -119 76 -109 102 -146 204 -281 50 -65 105 -139 123 -163 35 -47 75
-96 212 -262 47 -57 99 -120 115 -141 43 -54 307 -347 438 -487 27 -28 48 -54
47 -58 -1 -4 17 -20 39 -37 23 -16 41 -33 41 -37 0 -11 47 -61 52 -55 3 2 20
-15 38 -39 19 -23 43 -49 55 -57 11 -8 97 -86 190 -174 163 -152 460 -412 555
-486 41 -31 140 -111 199 -161 13 -11 52 -40 87 -65 36 -26 61 -50 57 -56 -3
-6 -1 -8 5 -5 5 4 50 -22 99 -58 48 -35 102 -74 118 -85 17 -12 84 -60 150
-106 66 -47 129 -90 140 -95 27 -13 48 -26 132 -82 40 -26 74 -47 77 -47 3 0
34 -20 70 -45 36 -25 66 -42 66 -38 0 3 8 -1 18 -9 9 -8 37 -26 62 -39 25 -13
55 -32 68 -43 12 -11 22 -17 22 -13 0 3 28 -10 63 -30 34 -19 100 -56 147 -81
47 -25 93 -52 103 -60 9 -8 17 -12 17 -9 0 7 163 -75 186 -94 9 -8 19 -13 21
-11 9 7 53 -12 69 -29 9 -10 20 -16 25 -14 7 5 70 -25 95 -46 6 -5 13 -6 16
-3 3 3 23 -4 44 -15 52 -26 115 -53 199 -86 39 -15 77 -34 86 -41 9 -8 18 -11
21 -8 4 3 21 -2 40 -12 18 -10 38 -18 43 -19 14 -2 44 -13 84 -33 19 -9 39
-17 45 -18 22 -1 116 -36 122 -45 3 -5 9 -7 14 -4 5 3 26 -2 47 -11 21 -9 44
-18 51 -20 8 -1 21 -6 30 -10 9 -4 24 -8 32 -9 24 -3 124 -37 136 -46 6 -5 13
-6 16 -3 5 5 130 -31 152 -44 5 -3 21 -7 35 -8 37 -4 53 -9 76 -20 11 -5 31
-9 44 -9 26 0 32 9 96 128 19 37 48 89 63 115 15 26 34 59 41 75 8 15 18 27
23 27 5 0 7 4 4 8 -6 10 96 216 120 243 9 10 13 22 10 27 -3 5 1 15 9 22 8 7
12 16 9 22 -3 5 1 19 9 31 8 12 15 24 15 27 3 15 36 87 45 99 6 7 12 18 13 25
4 25 77 192 91 208 8 9 13 21 10 26 -3 4 6 33 20 63 15 30 25 58 25 62 -1 4 3
18 10 30 12 23 56 145 109 302 16 50 37 106 46 125 9 19 18 44 19 55 5 44 23
98 39 115 10 11 15 26 12 34 -7 18 31 146 43 146 5 0 9 12 9 28 -1 41 21 125
38 144 8 9 12 21 9 27 -4 6 9 70 28 143 18 73 37 149 40 168 3 19 12 47 20 62
8 15 12 36 9 47 -3 10 0 27 5 38 6 10 13 39 17 63 9 65 33 180 46 220 6 19 12
56 14 82 2 26 6 52 10 57 3 6 8 41 10 77 3 44 10 73 21 85 11 12 15 29 11 51
-6 39 29 304 45 335 5 11 7 26 4 32 -7 10 11 222 21 251 3 8 7 53 9 99 3 46 8
89 12 95 4 6 7 52 8 101 0 129 15 437 21 455 6 21 7 821 0 840 -7 19 -20 298
-20 440 0 58 -4 107 -8 110 -5 3 -10 44 -13 90 -2 47 -6 92 -9 100 -11 33 -27
237 -21 267 4 19 2 38 -4 46 -6 7 -16 53 -22 102 -6 50 -15 113 -21 142 -6 28
-7 67 -4 86 5 24 2 42 -9 59 -14 21 -35 149 -39 243 -1 22 -5 45 -8 50 -14 24
-31 106 -26 126 3 12 -1 32 -9 45 -9 12 -14 33 -13 46 2 13 -5 50 -15 82 -10
33 -15 68 -12 80 3 11 1 25 -5 32 -13 15 -50 194 -43 206 3 5 1 14 -5 21 -8
11 -65 229 -74 285 -1 9 -6 23 -11 30 -4 7 -9 30 -10 50 -1 20 -6 43 -11 51
-12 20 -36 118 -39 158 -2 17 -7 38 -13 45 -11 14 -44 122 -42 135 1 4 -2 19
-8 33 -6 14 -21 59 -33 100 -63 208 -94 307 -103 327 -6 13 -7 26 -4 30 4 3
-2 20 -12 37 -10 17 -26 58 -36 91 -10 33 -22 66 -27 72 -6 7 -8 19 -5 27 3 7
-1 23 -8 33 -20 28 -45 105 -38 115 3 5 -2 17 -11 27 -19 21 -47 97 -39 105 4
3 -2 14 -11 25 -9 10 -18 31 -20 45 -2 15 -8 32 -14 38 -6 6 -8 17 -5 24 3 7
-2 21 -11 29 -14 14 -39 83 -41 111 0 6 -7 21 -16 35 -9 13 -24 47 -34 74 -10
28 -23 56 -28 63 -5 7 -7 15 -3 19 3 3 -1 14 -9 23 -16 18 -48 100 -38 100 3
0 -1 8 -9 18 -14 15 -88 182 -92 207 -1 6 -4 15 -8 20 -29 49 -48 88 -43 94 2
5 -4 16 -14 25 -11 10 -22 28 -25 40 -3 12 -12 39 -21 59 -8 20 -14 39 -13 41
2 2 -4 12 -13 22 -22 26 -50 85 -44 94 3 4 -2 13 -10 20 -14 12 -88 154 -90
175 -1 6 -11 26 -23 45 -11 19 -22 40 -22 45 -1 6 -6 15 -11 21 -5 6 -24 40
-43 75 -18 35 -48 91 -66 124 -18 33 -48 89 -68 125 -19 36 -42 76 -51 90 -19
27 -44 83 -41 89 1 2 -2 7 -7 10 -13 9 -46 59 -83 126 -60 108 -70 126 -92
158 -49 72 -58 86 -58 92 0 4 -11 21 -25 39 -14 18 -25 36 -25 40 0 4 -18 31
-40 61 -22 30 -40 57 -40 60 0 20 -270 410 -485 700 -66 88 -135 180 -155 205
-20 25 -65 81 -100 125 -34 44 -80 100 -101 125 -21 25 -70 83 -110 130 -218
260 -553 616 -810 861 -96 91 -185 174 -198 185 -14 10 -64 55 -111 99 -47 44
-131 117 -185 162 -55 45 -134 110 -175 144 -101 83 -313 245 -505 387 -84 62
-87 62 -347 62 -213 0 -238 -2 -224 -15 8 -8 17 -15 20 -15 4 0 49 -29 102
-65 53 -36 99 -65 103 -65 5 0 16 -9 26 -20 9 -10 47 -38 84 -62 36 -23 89
-61 118 -83 28 -22 91 -69 140 -105 48 -36 92 -68 98 -72 114 -85 417 -337
551 -458 33 -30 87 -77 119 -105 111 -94 662 -649 740 -745 11 -14 43 -50 70
-80 104 -115 253 -288 273 -315 12 -17 97 -120 103 -125 3 -3 18 -23 34 -45
16 -22 34 -44 40 -50 6 -5 31 -37 56 -70 24 -33 49 -66 56 -73 10 -10 58 -76
151 -205 13 -18 30 -41 38 -52 182 -254 324 -461 324 -474 0 -5 4 -11 8 -13 9
-3 104 -152 237 -370 36 -59 65 -112 65 -118 0 -5 4 -10 9 -10 5 0 14 -15 21
-32 8 -18 19 -40 25 -48 12 -15 58 -95 103 -180 13 -25 36 -67 53 -95 16 -27
39 -70 51 -95 13 -25 25 -47 28 -50 3 -3 19 -34 35 -70 17 -36 40 -80 53 -99
12 -19 22 -38 22 -44 0 -6 6 -18 13 -26 7 -9 26 -45 42 -81 16 -36 62 -132
101 -215 40 -82 84 -177 99 -210 14 -33 32 -73 40 -90 50 -110 65 -147 65
-158 0 -7 4 -17 9 -22 5 -6 18 -32 29 -60 11 -27 39 -95 61 -150 44 -105 62
-151 87 -225 8 -25 21 -57 29 -72 8 -14 15 -33 15 -42 0 -9 4 -24 9 -34 22
-44 41 -94 41 -110 0 -10 4 -22 9 -27 5 -6 23 -51 39 -101 17 -50 35 -102 41
-115 5 -13 14 -44 21 -69 7 -25 18 -58 25 -75 8 -16 21 -57 31 -90 9 -33 20
-64 25 -69 5 -6 9 -19 9 -29 0 -17 18 -81 40 -142 8 -22 32 -103 51 -175 11
-42 20 -73 48 -161 6 -19 11 -45 11 -57 0 -12 6 -36 14 -54 8 -18 19 -60 26
-93 6 -33 16 -73 22 -90 6 -16 13 -48 15 -70 3 -22 9 -44 14 -49 5 -6 9 -23 9
-38 0 -16 7 -45 15 -65 8 -19 15 -49 15 -66 0 -17 6 -49 14 -72 8 -22 19 -74
26 -115 6 -41 16 -90 22 -108 9 -32 17 -73 38 -202 5 -30 16 -93 24 -140 9
-47 20 -120 25 -162 5 -43 13 -83 16 -89 7 -11 18 -94 34 -266 5 -51 12 -97
16 -102 6 -11 19 -151 34 -368 5 -73 12 -137 16 -143 13 -22 29 -503 29 -920
0 -427 -15 -856 -33 -955 -6 -27 -10 -78 -10 -112 -1 -35 -5 -93 -11 -130 -11
-73 -26 -191 -40 -313 -20 -177 -29 -240 -36 -251 -3 -6 -10 -41 -15 -78 -4
-36 -15 -102 -24 -146 -9 -44 -20 -102 -25 -130 -16 -102 -31 -179 -35 -186
-3 -4 -14 -53 -25 -110 -11 -57 -24 -113 -29 -124 -6 -11 -12 -36 -15 -55 -6
-44 -26 -119 -37 -142 -5 -10 -9 -30 -9 -46 0 -15 -7 -37 -15 -48 -8 -10 -15
-30 -15 -42 0 -31 -29 -134 -41 -147 -5 -5 -9 -22 -9 -37 0 -16 -4 -36 -9 -46
-6 -9 -17 -44 -26 -77 -10 -33 -21 -69 -25 -80 -5 -11 -23 -65 -41 -120 -17
-55 -36 -104 -40 -110 -5 -5 -9 -21 -9 -36 0 -15 -4 -30 -9 -34 -5 -3 -19 -37
-31 -75 -12 -39 -26 -70 -31 -70 -5 0 -9 -9 -9 -19 0 -11 -12 -48 -26 -83 -14
-35 -30 -72 -34 -83 -4 -11 -15 -37 -24 -58 -9 -21 -16 -44 -16 -52 0 -8 -4
-15 -9 -15 -5 0 -12 -11 -15 -25 -4 -14 -20 -56 -37 -93 -17 -37 -42 -92 -56
-122 -14 -30 -56 -118 -94 -196 -38 -78 -69 -146 -69 -152 0 -7 -4 -12 -8 -12
-4 0 -25 -34 -45 -75 -34 -67 -41 -75 -67 -75 -16 0 -39 4 -52 9 -13 5 -50 17
-83 26 -33 9 -69 20 -80 24 -39 15 -90 33 -110 38 -11 2 -29 9 -40 14 -24 11
-141 54 -205 75 -44 15 -64 22 -125 49 -16 7 -52 21 -78 31 -26 9 -50 21 -53
25 -3 5 -13 9 -22 9 -9 0 -42 12 -72 26 -30 14 -68 32 -85 39 -106 47 -406
191 -485 234 -30 16 -62 32 -70 35 -8 3 -33 17 -55 31 -22 14 -51 31 -65 38
-25 12 -213 119 -240 137 -8 5 -28 17 -45 26 -16 9 -55 33 -85 52 -30 19 -71
45 -90 57 -207 128 -638 432 -785 552 -5 5 -37 30 -70 55 -33 26 -67 53 -75
60 -9 7 -56 47 -105 88 -50 41 -92 77 -95 80 -3 4 -32 28 -65 55 -32 26 -64
53 -71 59 -6 6 -53 49 -105 96 -249 224 -786 771 -909 926 -14 17 -79 94 -145
172 -170 199 -235 280 -235 291 0 5 -5 11 -10 13 -16 5 -411 537 -475 640 -12
18 -234 353 -276 416 -16 23 -29 45 -29 49 0 3 -10 20 -23 37 -13 17 -27 38
-31 46 -4 8 -12 24 -19 35 -38 64 -118 197 -143 240 -16 28 -33 58 -39 67 -5
9 -17 29 -26 45 -8 15 -29 53 -46 83 -85 152 -336 644 -386 757 -15 34 -32 65
-37 68 -6 4 -10 13 -10 21 0 13 -33 87 -106 238 -13 28 -24 55 -24 61 0 7 -16
44 -35 84 -19 39 -35 76 -35 82 0 6 -6 23 -14 37 -8 15 -22 45 -31 67 -9 22
-20 48 -25 57 -6 10 -10 23 -10 30 0 7 -11 36 -25 63 -13 28 -25 57 -25 65 0
8 -11 38 -25 65 -13 28 -25 60 -25 72 0 12 -4 24 -9 27 -5 3 -16 29 -25 58 -9
29 -24 71 -33 93 -27 70 -46 123 -75 215 -11 36 -24 69 -29 74 -5 6 -9 22 -9
36 0 14 -4 30 -9 36 -5 5 -16 36 -26 69 -9 33 -23 76 -30 95 -7 19 -18 55 -25
80 -7 25 -18 63 -25 85 -7 22 -18 58 -24 80 -5 22 -22 81 -36 130 -14 50 -30
106 -35 125 -23 90 -42 159 -55 201 -8 26 -15 56 -15 67 0 12 -4 31 -9 44 -10
26 -30 104 -42 163 -4 22 -15 69 -24 105 -8 36 -20 88 -25 115 -5 28 -16 84
-25 125 -8 41 -19 98 -24 125 -5 28 -17 86 -26 130 -8 44 -19 110 -24 146 -5
37 -12 72 -15 78 -7 11 -22 114 -35 251 -4 42 -10 81 -15 88 -7 11 -15 82 -36
312 -6 58 -13 112 -16 120 -4 8 -10 71 -14 140 -5 69 -16 235 -26 370 -25 347
-25 1072 0 1405 9 132 22 298 26 368 5 70 12 132 15 137 3 5 10 53 15 107 20
210 32 298 41 307 5 6 9 30 9 54 0 48 12 135 35 247 8 39 17 86 20 105 3 19
12 69 21 110 8 41 18 93 21 115 3 22 9 44 14 50 5 5 9 18 9 30 0 11 6 45 13
75 8 30 22 91 32 135 10 44 21 89 26 100 4 11 10 34 13 50 5 32 24 106 51 195
9 30 18 66 21 80 3 14 9 34 14 45 18 43 40 120 40 140 0 11 4 25 9 31 5 5 16
36 26 69 9 33 21 69 25 80 5 11 16 45 26 75 17 57 27 85 49 135 7 17 18 50 25
75 7 25 18 54 25 65 6 11 15 35 18 53 l7 32 -144 0 -143 0 -22 -56z"/>
<path d="M19252 33278 c-7 -7 -12 -17 -12 -23 0 -7 -9 -20 -20 -30 -11 -10
-18 -20 -15 -23 2 -2 -9 -23 -24 -46 -16 -22 -29 -43 -29 -46 -1 -11 -24 -57
-51 -105 -15 -27 -49 -90 -75 -140 -26 -49 -54 -97 -62 -106 -8 -9 -11 -18 -8
-21 3 -4 -5 -23 -19 -45 -13 -21 -41 -74 -62 -118 -95 -199 -126 -260 -141
-277 -10 -10 -14 -18 -10 -18 4 0 1 -10 -6 -22 -7 -13 -12 -27 -13 -33 0 -13
-54 -125 -69 -144 -6 -7 -11 -19 -11 -25 -1 -6 -12 -33 -25 -61 -13 -27 -25
-56 -26 -63 -1 -7 -8 -20 -16 -29 -7 -9 -13 -21 -13 -27 -1 -6 -5 -20 -9 -31
-23 -57 -38 -92 -46 -107 -6 -10 -10 -23 -10 -29 0 -6 -9 -23 -19 -37 -10 -15
-19 -31 -20 -37 -5 -30 -15 -63 -27 -85 -7 -14 -21 -47 -30 -75 -10 -27 -23
-57 -31 -66 -7 -9 -11 -18 -8 -21 3 -3 -6 -32 -21 -64 -15 -33 -28 -66 -29
-74 -6 -34 -59 -176 -72 -191 -7 -9 -10 -19 -6 -22 3 -4 -2 -16 -11 -26 -10
-11 -15 -25 -11 -31 4 -6 2 -16 -3 -23 -5 -7 -13 -28 -17 -47 -4 -19 -12 -41
-18 -48 -6 -7 -11 -23 -13 -35 -2 -23 -20 -78 -35 -109 -5 -10 -9 -22 -9 -28
0 -6 -8 -27 -17 -48 -9 -20 -17 -44 -18 -52 -1 -24 -36 -134 -46 -146 -5 -6
-7 -13 -4 -15 7 -7 -23 -99 -41 -127 -8 -13 -13 -29 -11 -36 6 -15 -17 -106
-35 -138 -7 -13 -14 -34 -15 -48 -3 -43 -30 -149 -42 -163 -6 -8 -8 -17 -5
-20 4 -3 -1 -30 -9 -59 -9 -29 -20 -74 -26 -100 -20 -89 -34 -143 -39 -152 -3
-5 -7 -25 -8 -45 -2 -20 -11 -61 -19 -91 -9 -30 -17 -59 -18 -65 -1 -5 -6 -16
-10 -22 -5 -7 -6 -17 -2 -22 3 -6 1 -32 -5 -58 -6 -26 -16 -70 -22 -98 -6 -27
-15 -55 -20 -62 -5 -7 -7 -21 -3 -32 3 -11 2 -37 -4 -58 -5 -21 -15 -69 -21
-107 -6 -39 -14 -75 -18 -80 -4 -6 -7 -27 -8 -46 -1 -62 -34 -263 -45 -277 -6
-7 -8 -24 -5 -39 4 -14 0 -67 -8 -117 -8 -51 -18 -119 -21 -152 -4 -33 -12
-66 -17 -72 -6 -8 -8 -31 -4 -56 6 -42 -9 -227 -21 -257 -3 -8 -7 -75 -9 -148
-2 -73 -7 -140 -12 -150 -13 -23 -12 -1392 0 -1415 5 -10 10 -71 12 -135 1
-65 5 -122 8 -127 8 -13 28 -210 27 -255 -1 -19 4 -57 9 -85 6 -27 13 -75 16
-105 3 -30 10 -77 16 -105 6 -27 8 -63 5 -79 -3 -16 -1 -34 5 -41 11 -13 41
-186 43 -250 1 -22 5 -44 8 -50 4 -5 12 -37 19 -70 6 -33 16 -79 21 -103 5
-24 7 -48 3 -53 -3 -6 1 -25 10 -44 9 -19 18 -51 20 -72 3 -21 9 -51 15 -67 7
-16 9 -38 5 -49 -3 -11 -1 -23 6 -27 13 -8 51 -160 43 -172 -2 -5 5 -29 17
-53 12 -25 19 -53 16 -61 -4 -9 -2 -22 4 -29 10 -13 39 -102 45 -140 1 -11 10
-37 19 -57 9 -21 16 -48 16 -62 0 -14 5 -28 11 -31 6 -4 8 -14 5 -22 -3 -8 1
-25 10 -38 16 -25 34 -83 37 -121 1 -11 7 -27 13 -35 12 -16 86 -227 86 -249
1 -8 4 -17 8 -20 3 -3 17 -32 29 -65 69 -179 96 -244 116 -285 7 -14 25 -56
40 -95 15 -38 32 -75 37 -82 5 -7 7 -17 4 -22 -4 -5 -1 -13 4 -16 6 -4 22 -32
36 -63 14 -32 32 -72 40 -89 8 -18 13 -34 12 -35 -2 -2 7 -18 20 -35 13 -18
20 -33 16 -33 -4 0 1 -9 11 -20 10 -11 15 -20 11 -20 -4 0 3 -15 16 -32 13
-18 22 -35 22 -38 -1 -3 4 -14 11 -25 49 -79 84 -148 80 -155 -3 -5 -1 -10 3
-12 8 -3 68 -103 97 -159 12 -24 19 -24 108 2 39 12 86 22 102 23 17 1 40 7
51 13 33 19 115 45 122 39 3 -3 11 -1 17 4 19 16 127 49 141 43 8 -3 14 -1 14
4 0 6 19 16 43 23 23 7 49 15 57 18 8 3 20 6 25 7 6 0 27 8 48 18 20 10 41 16
46 13 5 -3 14 1 21 9 7 8 20 15 29 15 9 0 25 6 36 13 11 7 45 21 75 31 30 10
79 29 108 42 29 13 58 24 65 24 7 0 17 4 22 8 6 5 24 14 40 20 17 6 44 17 60
23 17 7 32 13 35 14 3 1 25 11 50 23 25 11 47 20 50 19 3 -1 21 8 41 21 20 12
42 22 48 22 6 0 29 11 52 25 22 14 44 23 49 20 5 -3 11 -1 15 5 7 11 207 110
216 107 4 -1 16 6 27 16 11 10 26 20 34 21 7 1 31 13 53 27 22 13 42 24 45 24
3 0 10 3 15 7 17 10 88 50 132 74 22 12 43 21 45 18 3 -2 13 5 23 16 10 11 22
20 26 20 5 0 33 16 63 35 29 19 56 32 58 29 3 -2 13 5 23 16 10 11 22 20 28
20 5 0 23 10 40 23 36 25 65 43 87 53 15 7 164 102 212 135 15 11 29 19 32 19
5 0 32 18 242 162 115 80 324 232 380 278 23 19 64 51 90 70 62 46 201 155
239 189 53 47 56 61 53 243 l-3 168 -60 -52 c-96 -82 -147 -124 -195 -163 -25
-20 -54 -44 -65 -53 -11 -10 -49 -40 -84 -67 -35 -28 -87 -68 -115 -90 -127
-100 -587 -425 -678 -480 -9 -5 -52 -32 -95 -59 -43 -27 -107 -67 -143 -90
-36 -23 -75 -47 -85 -54 -11 -6 -27 -15 -35 -19 -8 -4 -31 -16 -50 -28 -145
-90 -510 -281 -745 -390 -44 -20 -109 -51 -145 -67 -36 -17 -74 -34 -85 -38
-11 -4 -45 -19 -75 -33 -30 -13 -75 -33 -100 -42 -47 -18 -100 -40 -135 -55
-55 -23 -162 -60 -176 -60 -8 0 -19 -4 -25 -10 -5 -5 -36 -18 -69 -29 -33 -11
-85 -28 -115 -39 -30 -11 -82 -27 -115 -37 -33 -10 -69 -21 -80 -26 -11 -4
-38 -13 -59 -20 -53 -16 -46 -26 -188 256 -36 72 -73 148 -83 170 -9 22 -21
47 -26 55 -12 21 -36 74 -77 170 -6 14 -22 51 -36 82 -14 31 -26 62 -26 69 0
7 -6 20 -13 28 -8 9 -22 42 -31 73 -10 32 -22 60 -27 64 -5 3 -9 15 -9 27 0
13 -6 31 -13 42 -7 11 -19 40 -26 65 -7 25 -19 56 -25 70 -7 14 -18 45 -25 70
-7 25 -19 57 -27 72 -8 14 -14 37 -14 50 0 13 -4 28 -8 34 -4 5 -16 34 -25 64
-28 91 -67 222 -79 265 -6 22 -17 59 -24 83 -8 23 -14 52 -14 63 0 11 -5 30
-12 42 -6 12 -15 40 -20 62 -5 22 -13 58 -18 80 -11 45 -53 235 -76 340 -8 39
-19 93 -24 120 -5 28 -16 88 -25 135 -9 47 -20 117 -25 155 -4 39 -11 77 -14
85 -6 17 -24 144 -36 265 -4 44 -13 107 -19 140 -6 33 -11 87 -11 120 0 33 -4
76 -9 95 -5 19 -12 96 -15 170 -4 74 -11 176 -16 225 -12 116 -12 1049 0 1180
5 55 12 154 15 220 4 66 11 144 16 174 5 30 9 86 10 125 0 39 5 94 10 121 5
28 14 91 19 140 15 144 75 563 87 600 3 10 9 44 14 75 16 105 28 175 38 215 5
22 14 65 20 95 5 30 15 78 21 105 6 28 15 70 20 95 16 90 30 152 37 163 4 6
10 29 15 52 12 68 60 255 113 445 15 52 30 111 34 130 5 19 13 46 19 60 5 14
18 52 27 85 10 33 21 64 26 69 5 6 9 21 9 35 0 15 16 71 36 126 19 55 39 114
44 130 11 41 23 75 60 175 17 47 34 97 37 113 3 15 9 30 14 33 5 3 9 16 9 29
0 13 4 26 9 29 5 4 17 32 27 64 9 31 23 68 30 82 7 14 20 48 30 75 10 28 21
54 26 59 4 6 8 19 8 30 0 11 6 27 13 35 7 9 19 34 26 56 7 22 19 54 26 70 7
17 21 48 30 70 9 22 26 58 36 81 10 22 19 44 19 50 0 8 31 76 66 147 8 16 14
35 14 43 0 8 5 14 10 14 6 0 10 5 10 11 0 6 18 48 40 94 22 46 40 89 40 97 0
8 4 18 9 23 9 11 52 95 146 285 31 63 60 122 64 130 5 8 18 33 29 55 11 22 34
67 53 100 18 33 46 85 62 115 16 30 41 78 57 105 16 28 38 68 50 90 12 22 39
69 61 105 21 36 43 75 48 87 6 11 15 24 20 28 32 19 -2 25 -147 25 -110 0
-162 -4 -170 -12z"/>
<path d="M4192 21138 c-4 -4 -57 -10 -118 -12 -60 -2 -116 -6 -124 -9 -29 -11
-266 -27 -299 -21 -19 4 -36 3 -40 -4 -3 -5 -31 -13 -61 -17 -30 -3 -101 -13
-158 -21 -57 -8 -112 -12 -122 -9 -11 3 -28 1 -39 -5 -25 -13 -235 -50 -260
-45 -9 2 -31 -3 -47 -10 -16 -8 -86 -23 -156 -35 -70 -11 -142 -26 -159 -32
-22 -7 -34 -7 -41 0 -8 8 -14 7 -22 -3 -6 -8 -40 -22 -76 -30 -36 -7 -92 -21
-125 -29 -33 -8 -63 -12 -67 -10 -3 2 -9 0 -12 -5 -6 -8 -69 -24 -106 -26 -8
-1 -26 -6 -40 -12 -54 -23 -131 -44 -140 -38 -5 3 -20 -1 -32 -9 -26 -17 -101
-38 -135 -38 -13 0 -23 -4 -23 -8 0 -9 -91 -42 -126 -46 -12 -1 -35 -9 -52
-18 -17 -9 -35 -15 -39 -14 -4 1 -18 -3 -30 -10 -12 -7 -26 -11 -30 -10 -4 1
-26 -6 -47 -15 -22 -10 -41 -15 -44 -12 -3 3 -13 -2 -22 -10 -10 -9 -21 -15
-26 -13 -5 1 -23 -6 -41 -15 -18 -9 -36 -16 -40 -15 -8 2 -49 -14 -96 -38 -16
-8 -32 -12 -37 -9 -4 3 -13 -2 -20 -10 -7 -8 -20 -15 -29 -15 -9 0 -27 -7 -39
-16 -13 -9 -26 -13 -29 -10 -3 3 -18 -3 -32 -12 -35 -24 -82 -44 -89 -38 -2 3
-16 -4 -30 -14 -13 -11 -33 -20 -43 -20 -10 0 -21 -5 -24 -10 -4 -6 -10 -8
-15 -5 -5 3 -11 1 -15 -5 -10 -16 -85 -51 -95 -45 -6 3 -10 2 -10 -4 0 -5 -21
-17 -47 -27 -27 -10 -52 -21 -58 -25 -28 -20 -148 -78 -155 -74 -4 2 -15 -4
-25 -15 -10 -11 -21 -20 -25 -20 -4 0 -34 -16 -65 -35 -32 -19 -61 -32 -65
-30 -4 3 -13 -2 -19 -9 -7 -8 -36 -27 -64 -41 -29 -15 -59 -33 -68 -41 -8 -8
-20 -14 -26 -14 -29 0 -33 -28 -13 -94 12 -36 19 -70 16 -75 -3 -4 4 -25 14
-47 11 -21 20 -48 20 -61 0 -12 5 -25 11 -29 6 -3 8 -17 4 -31 -4 -17 0 -32
10 -43 16 -18 35 -73 38 -115 2 -11 10 -31 19 -45 14 -22 30 -73 33 -105 1 -5
9 -27 18 -49 9 -21 15 -42 12 -46 -3 -5 0 -10 6 -12 6 -2 12 -13 13 -23 1 -11
9 -36 18 -55 33 -72 48 -108 48 -119 0 -6 4 -19 9 -29 5 -9 27 -62 49 -117 49
-123 54 -137 58 -153 1 -8 9 -21 17 -30 7 -10 20 -33 27 -52 7 -19 22 -55 33
-80 11 -24 20 -49 21 -56 1 -6 9 -22 17 -35 21 -33 33 -62 30 -76 -1 -7 2 -13
7 -13 13 0 96 -171 95 -193 -1 -9 2 -15 6 -13 4 3 35 -49 69 -115 34 -65 59
-119 55 -119 -3 0 3 -10 14 -22 17 -19 31 -45 38 -68 1 -3 12 -23 26 -45 13
-22 23 -43 22 -46 -1 -4 7 -15 17 -24 11 -10 20 -22 20 -27 0 -4 22 -44 50
-88 27 -44 50 -83 50 -86 0 -4 11 -22 25 -40 14 -18 25 -35 25 -39 0 -3 17
-32 37 -63 21 -31 40 -62 43 -67 28 -56 304 -453 500 -719 61 -84 210 -271
278 -353 24 -28 44 -54 44 -57 -1 -2 18 -24 41 -49 23 -24 80 -88 127 -142
139 -161 169 -194 310 -340 193 -201 528 -531 635 -625 28 -25 92 -83 143
-129 50 -46 107 -95 126 -110 18 -14 87 -71 152 -126 115 -97 141 -118 324
-262 80 -62 258 -196 360 -270 63 -46 135 -96 275 -191 66 -45 125 -85 130
-89 6 -5 42 -28 80 -52 39 -25 82 -56 97 -69 14 -13 30 -24 35 -24 4 1 31 -13
58 -31 28 -17 86 -53 130 -80 44 -27 90 -58 103 -70 12 -11 22 -17 22 -14 0 4
18 -4 40 -18 22 -14 43 -25 48 -25 5 0 17 -9 27 -20 9 -10 20 -18 24 -17 3 1
43 -20 88 -46 45 -26 85 -47 89 -47 4 0 15 -6 23 -14 9 -7 36 -24 61 -37 25
-13 55 -32 68 -43 12 -11 22 -16 22 -12 0 4 14 -2 30 -14 17 -12 30 -18 30
-14 0 4 9 -1 20 -11 11 -10 20 -14 20 -10 0 5 11 -2 25 -15 14 -13 25 -21 25
-17 0 3 116 -52 258 -123 241 -120 401 -197 482 -232 19 -9 62 -29 95 -44 33
-16 62 -29 65 -30 28 -6 186 -77 201 -90 9 -8 18 -12 21 -9 6 7 95 -32 103
-45 4 -6 10 -8 15 -5 5 3 35 -7 67 -21 32 -15 62 -26 66 -25 4 0 21 -6 37 -14
16 -9 33 -16 37 -16 5 -1 17 -6 28 -12 11 -6 25 -12 30 -13 26 -4 55 -17 55
-26 0 -5 9 -7 19 -3 11 3 22 1 26 -5 3 -5 16 -10 29 -10 13 0 31 -9 42 -21 10
-11 26 -18 36 -16 10 3 21 1 24 -4 3 -5 14 -9 25 -9 11 0 34 -8 52 -17 18 -9
35 -16 39 -15 10 2 120 -38 134 -49 6 -5 13 -7 15 -4 3 2 70 -18 149 -46 80
-28 153 -50 162 -50 10 0 20 -4 23 -10 4 -5 16 -9 28 -9 13 0 40 -9 61 -20 22
-10 43 -17 47 -14 5 3 28 -3 51 -14 24 -10 49 -17 56 -14 7 2 18 0 25 -5 7 -5
38 -16 70 -23 31 -7 57 -17 57 -22 0 -5 9 -7 19 -3 11 3 28 2 38 -3 10 -6 43
-15 73 -22 30 -7 60 -15 65 -19 6 -3 15 -6 20 -6 30 -2 134 -29 158 -42 15 -7
31 -11 36 -8 8 4 157 -28 191 -42 8 -3 26 -7 40 -9 65 -7 184 -35 191 -45 4
-7 14 -9 22 -6 19 7 217 -31 234 -45 7 -5 17 -7 23 -3 10 6 125 -10 160 -23 8
-3 18 -5 22 -4 4 1 28 -3 55 -8 26 -6 68 -12 93 -14 25 -2 72 -9 105 -15 33
-6 89 -14 124 -17 35 -2 68 -7 74 -11 5 -3 39 -7 76 -9 72 -3 118 -11 135 -22
6 -4 40 -7 76 -8 36 0 103 -3 150 -8 47 -4 143 -11 215 -17 71 -6 132 -13 135
-18 13 -19 1447 -18 1460 1 3 4 39 10 80 14 41 3 129 10 195 16 66 6 153 10
194 9 41 -1 79 3 86 9 15 12 75 22 145 24 30 0 61 5 67 9 7 4 36 10 65 12 29
3 87 12 128 20 41 9 86 13 98 10 13 -3 30 -1 37 5 16 13 164 42 225 44 25 1
51 5 58 10 23 14 181 46 198 39 9 -3 19 0 24 6 7 12 113 40 172 46 14 2 31 5
35 8 17 11 166 48 171 43 2 -3 18 2 35 11 17 8 43 17 57 18 14 1 35 7 47 13
12 7 26 11 30 11 4 -1 17 1 28 5 43 16 74 26 175 57 58 17 112 32 120 34 8 1
32 10 52 19 21 9 41 15 45 15 5 -1 24 5 43 13 81 35 201 79 225 83 11 2 43 15
72 29 28 14 58 23 67 20 9 -3 16 -2 16 4 0 10 80 46 90 40 3 -2 19 7 37 20 17
12 38 22 46 22 9 0 19 5 22 11 4 6 13 8 21 5 8 -3 14 -2 14 3 0 8 32 22 56 25
6 1 18 7 26 14 8 6 18 9 21 5 4 -3 15 1 25 10 10 9 47 31 83 48 35 17 108 53
162 80 53 27 97 46 97 43 0 -4 8 0 18 9 17 15 75 42 79 35 1 -2 12 6 25 18 21
19 54 36 61 32 1 -2 23 12 49 30 27 18 48 29 48 25 0 -4 4 -3 8 3 8 13 68 51
95 60 12 5 16 12 11 23 -17 41 -36 119 -38 152 -1 20 -6 43 -12 50 -17 23 -46
108 -40 118 4 5 -2 25 -12 43 -17 32 -42 102 -49 142 -2 11 -7 24 -12 30 -11
13 -26 76 -22 94 1 7 -5 19 -12 27 -8 8 -23 40 -32 72 -9 32 -23 70 -31 84 -7
14 -11 29 -8 32 3 3 -3 18 -13 33 -10 16 -17 29 -15 31 1 2 -5 17 -13 33 -9
17 -13 35 -10 40 3 5 0 12 -6 15 -13 9 -51 96 -45 103 3 3 -3 17 -14 32 -11
16 -20 35 -20 43 0 9 -5 19 -11 22 -6 4 -8 13 -5 20 3 8 -2 19 -10 25 -8 7
-14 16 -14 21 0 4 -5 20 -11 36 -6 15 -11 30 -11 33 0 3 -9 17 -19 32 -10 14
-19 33 -19 41 0 9 -5 19 -10 22 -6 4 -8 10 -5 15 3 5 0 12 -5 15 -6 4 -22 32
-36 63 -14 32 -29 65 -35 75 -5 10 -7 22 -4 26 2 5 -2 14 -10 21 -19 15 -46
70 -40 80 2 4 -4 15 -15 25 -11 10 -20 25 -20 33 0 7 -8 26 -19 40 -31 44
-101 179 -96 184 3 3 -4 13 -15 23 -11 10 -20 22 -20 27 0 4 -17 36 -38 71
-21 34 -45 78 -55 97 -10 19 -27 51 -39 70 -12 19 -26 44 -32 55 -6 11 -19 32
-29 48 -40 63 -51 82 -49 87 0 3 -7 14 -17 25 -9 11 -23 31 -29 45 -7 14 -24
41 -37 60 -14 19 -31 43 -38 54 -6 10 -24 36 -39 57 -16 21 -28 42 -28 45 0 3
-22 36 -48 73 -26 36 -78 111 -115 166 -37 55 -77 112 -89 127 -13 15 -37 47
-54 70 -62 87 -189 255 -241 318 -361 443 -568 672 -925 1027 -339 337 -685
645 -990 882 -64 50 -123 100 -131 111 -8 11 -16 17 -20 14 -5 -5 -35 17 -156
114 -19 15 -57 43 -85 62 -28 19 -72 51 -97 70 -26 19 -55 41 -65 48 -11 7
-41 28 -69 47 -27 19 -115 78 -195 132 -80 54 -149 101 -155 106 -45 33 -114
79 -133 87 -12 5 -66 38 -120 73 -53 35 -107 67 -119 71 -13 4 -23 12 -23 17
0 5 -4 9 -10 9 -5 0 -34 16 -64 35 -30 19 -57 35 -60 35 -5 0 -111 61 -156 90
-8 5 -57 33 -107 61 -51 28 -93 55 -93 60 0 6 -3 8 -8 6 -10 -7 -126 51 -165
82 -10 8 -24 16 -32 17 -8 1 -32 13 -52 26 -21 12 -40 23 -43 23 -3 1 -25 12
-50 25 -25 13 -47 25 -50 25 -16 4 -68 31 -82 43 -10 9 -18 12 -18 9 0 -4 -57
22 -127 58 -106 53 -231 112 -253 120 -33 11 -68 29 -82 42 -10 9 -18 13 -18
9 0 -3 -24 6 -52 21 -29 15 -58 26 -65 25 -6 -2 -14 2 -18 8 -3 5 -14 10 -24
10 -9 0 -27 9 -39 21 -12 11 -26 17 -31 14 -5 -3 -12 -1 -16 5 -3 5 -12 10
-20 10 -7 0 -42 13 -77 29 -35 16 -81 34 -103 41 -22 7 -52 21 -67 32 -16 11
-28 17 -28 14 0 -9 -83 24 -100 39 -9 8 -19 13 -22 10 -7 -8 -89 23 -109 41
-9 8 -23 12 -32 9 -8 -4 -18 -2 -22 4 -3 6 -12 11 -19 11 -8 0 -31 7 -52 17
-22 9 -46 17 -54 18 -29 4 -100 37 -100 47 0 6 -11 7 -24 4 -14 -3 -27 -2 -30
3 -3 5 -26 14 -51 20 -25 6 -45 16 -45 22 0 6 -7 8 -16 5 -9 -4 -32 3 -51 14
-19 11 -39 18 -44 15 -5 -4 -18 0 -30 8 -11 8 -28 13 -39 10 -10 -3 -21 0 -24
6 -4 6 -14 11 -22 11 -8 0 -31 7 -52 17 -20 9 -42 15 -49 14 -7 -1 -29 6 -50
16 -21 9 -42 17 -48 18 -46 7 -95 20 -117 32 -15 7 -40 15 -55 17 -44 5 -117
27 -131 39 -7 6 -28 12 -45 13 -47 4 -146 31 -162 44 -8 6 -19 9 -24 5 -13 -7
-173 35 -182 48 -4 5 -11 7 -17 3 -5 -3 -70 8 -144 25 -291 67 -464 102 -566
115 -29 4 -55 11 -58 15 -2 4 -11 6 -19 2 -9 -3 -28 0 -43 6 -15 6 -52 13 -82
16 -30 2 -97 11 -149 19 -52 8 -98 13 -102 11 -4 -3 -10 2 -13 11 -5 12 -14
15 -35 11 -16 -4 -78 0 -138 8 -59 7 -135 16 -168 20 -32 3 -62 11 -66 17 -4
7 -20 8 -40 4 -31 -6 -288 11 -319 21 -8 3 -67 7 -130 10 -63 2 -117 8 -120
12 -7 11 -1297 10 -1308 -1z m1197 -268 c80 -6 205 -15 276 -21 72 -6 189 -14
261 -19 72 -5 143 -14 158 -20 15 -5 52 -10 81 -10 54 0 114 -7 290 -35 50 -8
110 -17 135 -20 25 -2 86 -12 135 -20 50 -9 117 -20 150 -25 33 -5 94 -16 135
-25 41 -8 98 -20 125 -25 28 -4 84 -16 125 -25 41 -9 96 -20 123 -25 26 -5 62
-13 80 -19 17 -5 59 -15 92 -21 33 -7 78 -18 100 -26 23 -8 49 -14 60 -14 10
0 32 -4 49 -9 27 -8 86 -24 181 -51 17 -4 62 -16 100 -25 39 -9 79 -21 90 -25
11 -4 49 -16 85 -25 81 -22 150 -44 172 -56 10 -5 25 -9 34 -9 14 0 302 -94
489 -161 210 -74 233 -82 278 -105 16 -8 35 -14 43 -14 8 0 22 -4 32 -9 39
-22 86 -41 98 -41 7 0 25 -6 41 -14 15 -8 39 -18 53 -24 14 -5 42 -17 63 -26
21 -9 44 -16 51 -16 8 0 19 -6 25 -14 7 -8 24 -17 39 -21 28 -7 62 -21 149
-61 28 -13 59 -24 67 -24 8 0 17 -4 20 -8 5 -9 75 -44 191 -97 117 -53 504
-240 565 -274 35 -19 69 -37 145 -75 44 -23 82 -43 85 -46 9 -9 44 -29 95 -55
74 -37 157 -84 175 -99 8 -7 30 -18 48 -26 17 -7 32 -16 32 -20 0 -4 8 -10 18
-14 9 -3 24 -10 32 -15 58 -39 232 -141 239 -141 5 0 11 -3 13 -7 4 -10 85
-63 94 -63 4 0 31 -18 60 -40 29 -22 56 -40 60 -40 3 0 20 -10 37 -22 17 -13
39 -27 49 -33 73 -43 467 -320 484 -341 6 -8 15 -14 19 -14 7 0 158 -111 260
-192 33 -26 98 -77 145 -114 47 -37 92 -75 102 -83 9 -9 31 -27 49 -41 38 -29
178 -146 230 -193 19 -18 66 -59 104 -92 245 -213 748 -714 975 -972 19 -22
55 -62 80 -89 25 -27 61 -69 80 -93 19 -25 64 -79 100 -121 36 -41 102 -123
147 -180 45 -58 97 -125 117 -150 68 -87 356 -490 356 -499 0 -5 4 -11 8 -13
10 -4 72 -96 72 -108 0 -4 4 -10 8 -12 11 -4 192 -295 192 -308 0 -5 4 -10 8
-10 5 0 18 -19 31 -42 12 -24 30 -55 39 -70 34 -53 97 -164 113 -199 9 -20 22
-40 28 -43 6 -4 11 -16 11 -26 0 -10 4 -20 8 -22 5 -1 20 -25 34 -53 120 -235
268 -538 268 -550 0 -4 16 -39 35 -78 19 -39 35 -74 35 -79 0 -4 11 -31 24
-60 13 -29 29 -69 36 -88 7 -19 26 -63 42 -98 15 -35 28 -72 28 -82 0 -10 5
-22 10 -25 6 -3 10 -17 10 -30 0 -13 4 -26 9 -30 5 -3 19 -37 31 -75 12 -38
26 -72 31 -75 5 -4 9 -19 9 -34 0 -15 4 -31 9 -36 5 -6 16 -37 26 -70 9 -33
21 -69 25 -80 19 -46 40 -126 40 -149 0 -19 -11 -33 -42 -53 -57 -36 -150 -83
-165 -83 -6 0 -13 -4 -15 -8 -4 -11 -124 -72 -142 -72 -8 0 -16 -4 -18 -8 -5
-12 -207 -106 -253 -118 -14 -3 -25 -9 -25 -13 0 -4 -17 -13 -37 -20 -35 -12
-52 -19 -138 -56 -16 -7 -43 -18 -60 -25 -16 -6 -43 -18 -58 -26 -16 -8 -36
-14 -46 -14 -9 0 -21 -4 -26 -9 -6 -5 -55 -23 -110 -41 -55 -18 -104 -37 -110
-42 -5 -4 -19 -8 -31 -8 -13 0 -26 -4 -29 -10 -3 -5 -15 -10 -25 -10 -11 0
-34 -6 -52 -14 -32 -13 -143 -49 -258 -82 -30 -9 -63 -20 -72 -25 -10 -5 -29
-9 -44 -9 -14 0 -35 -5 -47 -12 -12 -6 -39 -15 -59 -20 -76 -16 -115 -26 -190
-47 -43 -11 -89 -21 -103 -21 -15 0 -35 -5 -46 -11 -20 -10 -67 -20 -176 -39
-28 -4 -58 -12 -65 -16 -7 -5 -38 -12 -68 -16 -30 -4 -91 -14 -135 -23 -44 -9
-111 -20 -150 -25 -107 -14 -206 -30 -253 -40 -23 -6 -65 -10 -92 -10 -27 0
-71 -5 -97 -10 -57 -12 -215 -27 -408 -40 -77 -5 -183 -13 -235 -19 -126 -14
-1097 -14 -1215 0 -49 6 -155 14 -235 19 -235 15 -390 29 -429 40 -20 5 -58
10 -85 10 -28 0 -75 4 -105 10 -75 13 -191 30 -276 40 -100 12 -195 28 -235
40 -19 5 -54 10 -78 10 -24 0 -51 4 -61 10 -18 9 -104 27 -196 39 -27 4 -55
10 -61 13 -6 4 -37 12 -70 17 -32 6 -77 15 -99 20 -117 27 -266 63 -335 81
-19 5 -57 14 -85 19 -27 6 -59 15 -70 20 -11 5 -33 12 -50 14 -16 3 -55 12
-85 21 -30 10 -71 21 -90 25 -19 4 -45 13 -57 19 -12 7 -33 12 -47 12 -14 0
-27 4 -30 9 -3 5 -20 11 -38 14 -18 2 -46 9 -63 15 -16 6 -70 23 -120 38 -49
16 -94 32 -100 36 -5 4 -18 8 -30 8 -22 1 -122 33 -132 44 -3 3 -16 6 -28 6
-12 0 -30 7 -41 15 -10 8 -30 15 -44 15 -15 0 -30 4 -35 9 -6 5 -37 18 -70 29
-112 39 -379 138 -410 151 -11 5 -38 16 -60 25 -22 10 -48 21 -57 26 -10 6
-25 10 -35 10 -9 0 -24 6 -32 13 -9 7 -34 19 -56 26 -22 8 -62 24 -90 37 -27
12 -84 37 -125 54 -41 18 -109 48 -150 67 -81 38 -166 77 -190 87 -8 3 -22 10
-30 15 -47 27 -327 161 -337 161 -6 0 -13 3 -15 8 -1 4 -47 29 -100 57 -54 27
-98 53 -98 57 0 4 -6 8 -14 8 -8 0 -43 16 -78 35 -35 20 -79 43 -98 53 -19 9
-37 20 -40 23 -3 3 -12 8 -20 12 -8 3 -37 20 -65 36 -27 16 -68 40 -90 52 -22
12 -49 27 -60 33 -11 6 -31 18 -45 27 -14 9 -108 67 -210 129 -102 62 -187
116 -190 120 -3 4 -12 9 -20 13 -15 7 -44 24 -64 40 -6 4 -40 26 -76 50 -36
23 -67 44 -70 47 -3 3 -13 10 -22 15 -21 12 -189 126 -203 137 -5 4 -53 38
-105 75 -52 36 -116 84 -141 105 -26 21 -50 38 -53 38 -4 0 -51 35 -105 78
-54 42 -133 104 -175 136 -43 33 -87 68 -99 79 -12 10 -37 31 -56 45 -59 46
-125 103 -141 120 -8 9 -33 30 -55 47 -37 27 -93 76 -269 234 -117 107 -403
381 -480 461 -190 198 -278 291 -342 362 -38 42 -99 109 -135 150 -37 40 -94
107 -127 148 -33 41 -69 84 -81 94 -11 11 -21 23 -21 27 0 4 -12 21 -26 36
-15 15 -45 53 -67 83 -22 30 -44 57 -47 60 -11 8 -302 398 -335 449 -5 8 -42
60 -81 115 -78 111 -176 265 -302 474 -45 75 -86 144 -92 152 -5 8 -17 31 -26
50 -10 19 -26 47 -36 63 -31 44 -88 154 -229 437 -166 336 -179 364 -179 372
0 4 -14 37 -31 75 -31 69 -40 91 -60 141 -6 15 -17 41 -24 57 -7 17 -19 46
-25 65 -16 42 -39 99 -49 120 -4 8 -16 42 -25 75 -10 33 -22 68 -28 79 -5 10
-18 44 -28 75 -10 31 -22 67 -28 81 -5 14 -15 45 -22 70 -7 25 -23 78 -37 118
-13 40 -23 82 -21 93 2 13 23 32 58 51 109 61 530 268 544 268 3 0 29 11 58
24 29 13 94 41 143 61 50 21 94 42 99 47 6 4 18 8 27 8 10 0 30 7 46 15 15 8
62 26 103 40 41 15 84 31 95 35 11 5 63 23 115 40 52 17 104 35 115 39 21 9
95 32 160 50 22 6 75 22 119 36 43 14 88 25 100 25 12 0 27 5 34 12 6 6 30 14
54 19 24 4 70 15 103 24 33 9 76 19 95 21 19 3 44 9 55 14 18 8 73 20 215 49
30 6 75 16 100 22 25 6 68 14 95 19 28 4 91 15 140 25 50 9 119 20 155 25 61
8 101 15 241 40 30 5 80 10 110 10 30 0 72 5 93 11 41 11 133 20 491 44 121 8
234 16 250 18 71 9 870 6 1004 -3z"/>
<path d="M15086 11173 c-5 -5 -47 -9 -361 -34 -77 -6 -178 -13 -225 -15 -47
-2 -127 -11 -178 -20 -52 -9 -105 -13 -119 -9 -14 3 -31 1 -37 -5 -7 -5 -40
-12 -72 -15 -32 -2 -102 -12 -154 -20 -52 -9 -105 -14 -116 -11 -12 3 -36 -1
-53 -10 -19 -10 -44 -14 -60 -11 -16 3 -32 2 -37 -2 -14 -13 -133 -33 -155
-26 -11 4 -36 -1 -55 -10 -19 -9 -42 -15 -52 -14 -9 1 -24 -1 -32 -4 -40 -16
-103 -27 -121 -22 -11 4 -25 2 -32 -3 -15 -12 -161 -45 -207 -46 -19 -1 -46
-7 -59 -15 -13 -7 -46 -15 -73 -17 -28 -1 -56 -8 -64 -15 -7 -6 -25 -8 -38 -5
-16 4 -37 -1 -60 -15 -19 -11 -43 -19 -53 -17 -10 3 -31 -2 -46 -9 -15 -8 -37
-11 -48 -8 -13 4 -28 0 -40 -10 -10 -10 -36 -19 -58 -21 -22 -1 -49 -8 -61
-14 -12 -6 -24 -9 -27 -6 -4 3 -11 2 -17 -3 -6 -4 -22 -11 -36 -15 -109 -30
-131 -36 -138 -34 -4 1 -20 -5 -37 -12 -32 -13 -70 -24 -145 -42 -25 -6 -51
-15 -57 -20 -7 -6 -20 -7 -30 -4 -9 4 -20 2 -24 -5 -6 -10 -83 -36 -129 -43
-8 -1 -32 -10 -54 -20 -21 -9 -44 -15 -51 -12 -8 3 -19 -2 -26 -10 -6 -8 -17
-13 -23 -12 -6 1 -29 -6 -50 -15 -22 -10 -45 -16 -52 -13 -7 3 -18 -2 -25 -10
-7 -8 -18 -13 -25 -10 -7 3 -16 1 -19 -4 -6 -9 -98 -42 -124 -44 -9 -1 -26 -7
-37 -13 -12 -7 -44 -20 -70 -29 -27 -9 -62 -22 -79 -29 -82 -34 -149 -58 -170
-61 -5 0 -36 -13 -68 -27 -31 -15 -61 -26 -65 -25 -4 1 -26 -8 -49 -20 -23
-12 -50 -23 -60 -25 -10 -2 -42 -15 -72 -30 -30 -15 -57 -25 -59 -22 -3 2 -17
-5 -33 -16 -15 -10 -31 -18 -36 -17 -4 1 -18 -3 -30 -10 -13 -7 -23 -10 -23
-7 0 4 -13 -3 -30 -15 -16 -12 -34 -19 -39 -15 -5 3 -13 1 -16 -5 -4 -6 -28
-20 -53 -32 -26 -11 -74 -34 -108 -49 -33 -16 -64 -29 -68 -29 -4 0 -47 -19
-95 -43 -47 -24 -92 -42 -99 -39 -7 2 -12 -1 -12 -6 0 -11 -70 -48 -84 -44 -5
2 -18 -5 -30 -16 -21 -19 -153 -86 -158 -80 -2 2 -18 -7 -35 -20 -18 -13 -33
-20 -33 -16 0 4 -8 0 -18 -9 -17 -15 -76 -42 -78 -35 -1 2 -11 -5 -22 -15 -23
-21 -65 -46 -137 -83 -27 -14 -65 -34 -82 -44 -18 -11 -33 -17 -33 -15 0 3
-19 -8 -41 -25 -23 -16 -45 -28 -49 -25 -4 2 -15 -4 -25 -15 -10 -11 -22 -20
-27 -20 -5 0 -33 -15 -63 -34 -29 -19 -55 -33 -57 -30 -3 2 -13 -5 -23 -16
-10 -11 -23 -20 -28 -20 -6 0 -25 -11 -43 -25 -18 -14 -35 -25 -39 -25 -9 0
-210 -126 -267 -167 -27 -19 -48 -31 -48 -27 0 4 -8 0 -17 -9 -10 -8 -96 -67
-191 -131 -95 -64 -217 -149 -270 -188 -53 -40 -123 -90 -154 -113 -120 -84
-322 -242 -528 -414 -63 -52 -121 -100 -128 -106 -8 -5 -47 -39 -86 -75 -111
-100 -205 -181 -208 -180 -2 1 -55 -50 -119 -112 -163 -159 -232 -223 -239
-222 -6 0 -79 -75 -79 -82 0 -5 -28 -35 -220 -238 -144 -152 -306 -336 -411
-466 -41 -52 -90 -111 -109 -132 -91 -104 -496 -659 -578 -793 -73 -121 -97
-155 -106 -155 -6 0 -7 -3 -4 -6 4 -4 -3 -21 -15 -37 -12 -17 -30 -45 -39 -61
-18 -34 -151 -257 -177 -296 -9 -14 -17 -27 -18 -30 -4 -20 -20 -48 -37 -67
-11 -13 -17 -23 -14 -23 7 0 -60 -130 -72 -140 -3 -3 -7 -12 -9 -20 -7 -29
-34 -80 -44 -80 -5 0 -7 -3 -5 -8 5 -7 -10 -41 -45 -107 -9 -16 -29 -57 -44
-90 -16 -33 -35 -71 -44 -84 -8 -14 -15 -29 -15 -35 -1 -6 -11 -31 -23 -56
-12 -25 -22 -50 -22 -56 0 -5 -8 -19 -18 -30 -10 -11 -19 -26 -19 -34 0 -8 -7
-31 -15 -50 -8 -19 -23 -55 -33 -80 -9 -25 -21 -53 -26 -63 -5 -9 -16 -37 -24
-61 -8 -24 -22 -61 -32 -82 -9 -21 -17 -41 -18 -44 -1 -3 -4 -12 -8 -20 -3 -8
-8 -27 -11 -42 -3 -15 -13 -34 -22 -42 -8 -9 -13 -20 -9 -26 3 -5 0 -20 -7
-32 -6 -13 -13 -27 -14 -33 -1 -5 -11 -39 -23 -74 -11 -35 -21 -68 -21 -71 0
-4 -7 -25 -17 -46 -9 -22 -17 -48 -18 -59 -2 -11 -14 -58 -28 -105 -14 -47
-35 -119 -47 -160 -11 -41 -23 -82 -26 -92 -3 -12 13 -26 58 -54 35 -20 71
-44 81 -52 9 -8 17 -12 17 -7 0 4 7 2 15 -5 18 -15 526 -270 538 -270 5 0 22
-9 38 -21 16 -11 29 -17 29 -13 0 3 7 0 16 -7 9 -7 23 -14 32 -16 9 -1 18 -7
20 -13 2 -5 8 -8 12 -5 5 3 48 -13 97 -36 48 -23 96 -43 105 -44 10 -1 26 -10
37 -19 11 -10 24 -15 29 -12 5 3 15 -1 22 -9 6 -7 18 -11 25 -9 8 3 27 -1 42
-9 15 -9 55 -25 88 -38 33 -12 65 -26 71 -31 6 -4 13 -6 16 -3 3 3 18 -1 34
-10 16 -8 35 -15 42 -15 7 0 20 -4 30 -9 24 -13 420 -141 436 -141 8 0 19 -6
25 -14 7 -8 20 -12 30 -9 10 3 38 -5 61 -16 24 -11 47 -18 51 -15 5 3 19 -1
31 -8 13 -7 27 -11 31 -10 15 4 282 -70 288 -81 4 -5 14 -7 22 -4 24 9 177
-28 177 -43 0 -6 19 -10 43 -9 52 1 154 -16 193 -33 16 -7 45 -13 64 -14 63
-3 221 -33 235 -44 7 -6 24 -8 38 -5 13 4 44 1 68 -6 58 -16 63 -17 137 -23
35 -2 69 -10 77 -16 8 -7 26 -9 44 -5 28 6 180 -9 211 -22 8 -3 51 -7 94 -9
43 -2 85 -9 92 -15 7 -6 26 -8 43 -4 32 7 297 -12 315 -22 5 -4 118 -8 250
-10 132 -2 244 -7 250 -12 15 -11 568 -11 582 0 6 5 112 10 235 12 124 2 230
6 236 10 17 11 284 28 330 21 29 -4 48 -2 58 6 9 8 48 14 94 15 43 1 82 5 88
8 16 10 193 29 216 23 12 -3 26 -1 33 4 6 6 42 12 80 15 70 5 80 7 171 26 29
6 62 7 74 4 12 -4 24 -2 28 3 7 12 188 44 256 46 22 1 52 7 67 13 27 12 138
33 193 36 17 2 35 5 40 9 13 8 163 41 195 42 14 1 30 5 36 9 20 12 157 40 192
39 17 0 32 3 32 7 0 11 87 31 106 24 9 -3 20 0 24 7 4 7 18 14 31 15 22 3 199
51 276 76 18 6 37 8 43 4 5 -3 20 1 32 9 22 14 91 35 133 40 11 1 34 8 50 15
63 27 116 42 125 36 5 -3 20 1 33 9 12 9 32 17 42 19 11 2 30 8 42 15 12 7 26
11 30 11 4 -1 17 1 28 5 11 4 32 12 47 18 15 5 31 7 36 4 5 -3 15 1 22 9 7 8
20 15 29 15 9 0 29 7 45 15 16 9 36 13 44 10 8 -3 23 2 32 10 10 9 21 15 26
13 5 -1 18 3 29 9 30 17 167 65 190 67 11 1 36 9 55 18 49 23 74 31 84 29 5
-1 16 5 25 13 9 8 30 18 46 22 17 4 35 9 40 13 6 3 15 6 20 6 6 0 26 8 45 17
31 15 67 29 80 33 3 0 20 9 38 19 19 9 36 15 40 12 3 -3 13 1 22 9 10 9 21 15
26 13 5 -1 22 6 37 16 15 10 30 16 34 12 4 -3 15 1 25 11 10 9 21 13 24 10 4
-4 18 3 32 13 13 11 29 20 33 20 5 0 32 11 61 25 28 14 53 23 56 21 2 -3 26 9
54 25 27 16 54 27 59 24 5 -4 9 -2 9 4 0 5 17 15 38 22 20 6 43 16 50 22 6 5
12 6 12 2 0 -5 8 -1 18 7 20 18 92 50 92 41 0 -3 8 1 18 10 16 14 53 32 77 37
6 1 17 8 25 15 15 13 74 39 76 33 0 -2 8 3 17 10 22 19 247 132 247 125 0 -3
9 2 19 11 11 10 63 40 118 68 54 27 106 57 115 65 9 8 21 12 26 9 5 -3 15 1
22 8 6 8 28 23 48 34 65 34 117 64 132 76 8 7 40 25 70 41 30 16 90 50 133 76
42 27 77 45 77 41 0 -4 4 -2 8 4 6 10 71 53 143 94 27 15 40 24 269 176 263
175 590 410 767 552 40 31 118 93 175 138 254 199 898 784 1013 920 42 49 114
127 272 291 12 13 27 23 33 23 6 0 9 4 6 9 -3 5 20 37 52 72 83 91 238 273
297 348 28 35 69 87 92 115 121 148 458 621 550 771 52 86 110 176 132 205 14
19 26 37 26 40 1 5 37 69 87 153 15 26 28 51 28 56 0 4 9 16 20 26 11 10 18
20 15 23 -3 3 -1 10 4 16 14 18 60 103 149 276 47 91 89 167 93 168 5 2 7 8 3
13 -3 5 4 21 14 37 11 15 20 29 20 32 -1 5 28 72 67 155 13 28 31 68 40 90 10
22 24 47 32 56 7 9 13 20 11 25 -4 16 13 54 24 54 5 0 8 6 5 14 -3 8 1 20 8
26 8 7 13 16 10 20 -3 5 2 26 11 47 9 21 20 47 24 58 24 63 43 112 51 127 5
10 9 25 9 34 0 9 9 29 20 44 11 16 19 32 18 37 -4 16 33 123 43 123 5 0 9 6 8
13 -4 17 10 74 29 116 9 20 15 39 14 42 -2 12 29 104 44 127 8 13 13 30 10 37
-6 16 28 130 44 150 6 8 9 23 5 34 -3 11 1 34 10 50 15 29 14 31 -7 44 -62 37
-150 87 -155 87 -3 0 -18 9 -34 21 -16 11 -29 17 -29 14 0 -3 -12 2 -27 13
-24 16 -459 235 -473 238 -19 3 -68 28 -83 41 -9 9 -20 13 -23 10 -4 -4 -19 0
-33 7 -35 19 -119 56 -127 56 -6 0 -38 13 -109 46 -22 10 -42 19 -45 19 -46
12 -69 21 -87 37 -12 11 -26 17 -31 14 -6 -3 -27 1 -48 10 -22 9 -50 21 -64
27 -14 6 -30 9 -37 8 -6 -1 -14 3 -18 9 -3 5 -17 10 -29 10 -13 0 -35 9 -50
21 -14 11 -31 17 -36 14 -6 -4 -16 -3 -23 2 -7 5 -31 15 -54 22 -24 6 -43 16
-43 22 0 6 -9 8 -20 4 -12 -4 -31 1 -48 14 -16 11 -37 18 -49 15 -11 -3 -25 1
-32 9 -6 8 -20 13 -31 10 -11 -3 -36 4 -56 16 -19 12 -39 19 -44 16 -5 -3 -21
0 -37 6 -15 6 -43 13 -62 15 -18 2 -40 9 -49 16 -8 7 -25 14 -36 15 -42 4
-103 20 -135 36 -19 9 -37 14 -42 12 -8 -6 -155 31 -173 43 -6 4 -24 8 -41 9
-38 1 -172 30 -187 39 -7 4 -33 9 -60 10 -26 1 -53 6 -60 11 -7 4 -16 8 -20 9
-5 1 -9 2 -10 4 -2 1 -22 3 -46 5 -23 2 -49 8 -57 15 -8 6 -19 9 -25 5 -10 -6
-107 9 -140 22 -8 3 -34 7 -57 8 -24 1 -49 8 -57 14 -8 7 -25 9 -39 6 -13 -4
-42 -2 -63 4 -22 6 -68 13 -103 16 -35 3 -84 10 -110 15 -25 5 -77 12 -116 15
-38 2 -86 9 -105 15 -19 5 -61 10 -92 10 -51 0 -185 11 -303 25 -22 3 -74 5
-115 6 -41 0 -93 5 -115 11 -36 9 -1250 19 -1259 11z m1009 -274 c382 -19 513
-27 590 -38 44 -6 141 -15 215 -21 74 -7 158 -16 185 -21 28 -6 86 -15 130
-20 115 -13 208 -27 305 -44 47 -9 110 -20 140 -24 30 -5 75 -14 100 -19 25
-6 68 -15 95 -20 81 -16 208 -43 240 -52 17 -4 66 -16 110 -25 44 -9 91 -21
104 -27 14 -5 43 -13 65 -18 41 -8 209 -52 276 -71 19 -6 52 -14 73 -20 21 -5
45 -13 55 -18 9 -5 46 -17 82 -27 36 -10 70 -21 75 -24 6 -4 21 -10 35 -13 24
-5 73 -21 115 -38 11 -4 56 -20 100 -34 44 -14 88 -31 99 -36 10 -6 44 -19 76
-29 32 -10 66 -23 76 -28 11 -6 51 -22 89 -37 39 -15 94 -38 123 -51 29 -13
56 -24 60 -24 4 0 32 -12 62 -26 30 -14 78 -37 105 -49 104 -49 442 -216 490
-243 39 -22 51 -35 53 -57 3 -25 -22 -120 -63 -235 -7 -19 -19 -55 -26 -80 -6
-25 -18 -54 -24 -65 -7 -11 -14 -31 -18 -45 -5 -26 -40 -124 -61 -175 -7 -16
-19 -46 -26 -65 -18 -50 -39 -102 -50 -122 -6 -10 -10 -25 -10 -35 0 -9 -6
-24 -14 -32 -7 -9 -21 -40 -31 -68 -9 -29 -21 -53 -26 -53 -5 0 -9 -7 -9 -16
0 -8 -12 -41 -26 -72 -57 -123 -237 -487 -243 -492 -4 -3 -22 -34 -40 -70 -18
-36 -50 -96 -72 -135 -22 -38 -42 -78 -46 -87 -3 -10 -9 -18 -13 -18 -4 0 -10
-8 -14 -17 -15 -43 -170 -290 -348 -557 -7 -10 -17 -24 -23 -30 -5 -7 -14 -19
-20 -28 -31 -49 -168 -241 -185 -258 -3 -3 -9 -13 -15 -22 -14 -23 -206 -269
-227 -290 -10 -10 -18 -21 -18 -25 0 -4 -15 -23 -34 -43 -18 -19 -51 -58 -72
-86 -42 -55 -129 -154 -343 -388 -243 -266 -562 -577 -888 -862 -56 -49 -141
-122 -190 -162 -48 -40 -107 -89 -129 -108 -23 -19 -61 -49 -84 -67 -46 -34
-53 -39 -214 -164 -59 -46 -110 -83 -114 -83 -4 0 -18 -12 -31 -25 -13 -14
-29 -25 -37 -25 -8 0 -14 -4 -14 -8 0 -8 -85 -72 -95 -72 -3 0 -13 -7 -22 -15
-24 -19 -102 -74 -188 -131 -38 -26 -94 -63 -123 -83 -28 -20 -60 -41 -70 -46
-9 -6 -64 -42 -122 -80 -58 -39 -109 -72 -115 -74 -5 -2 -44 -25 -85 -51 -41
-25 -82 -49 -90 -53 -17 -8 -53 -30 -60 -37 -3 -3 -14 -10 -25 -16 -36 -20
-219 -126 -250 -145 -16 -11 -37 -21 -45 -25 -8 -3 -22 -10 -30 -15 -8 -5 -24
-13 -35 -19 -11 -5 -60 -32 -110 -60 -168 -93 -702 -353 -910 -443 -33 -14
-86 -37 -117 -51 -31 -14 -61 -26 -66 -26 -5 0 -29 -10 -53 -23 -24 -12 -69
-31 -99 -41 -30 -10 -59 -23 -65 -27 -5 -5 -15 -9 -22 -9 -7 0 -36 -11 -65
-25 -28 -14 -57 -25 -64 -25 -7 0 -25 -6 -41 -14 -45 -23 -75 -35 -128 -51
-27 -9 -59 -20 -70 -24 -11 -5 -51 -20 -90 -33 -38 -14 -86 -30 -105 -37 -19
-7 -64 -22 -100 -33 -36 -11 -69 -24 -75 -29 -5 -5 -19 -9 -31 -9 -12 0 -35
-6 -51 -14 -15 -8 -48 -20 -73 -26 -25 -7 -53 -16 -62 -21 -10 -5 -35 -13 -58
-19 -22 -5 -59 -15 -82 -21 -24 -5 -47 -14 -53 -20 -5 -5 -21 -9 -36 -9 -15 0
-30 -4 -33 -9 -3 -4 -22 -11 -43 -14 -21 -4 -63 -14 -93 -23 -30 -8 -73 -20
-95 -25 -22 -5 -49 -13 -60 -18 -11 -5 -47 -14 -80 -21 -33 -7 -71 -17 -85
-23 -14 -5 -45 -14 -70 -18 -25 -4 -72 -15 -105 -24 -33 -10 -80 -20 -105 -22
-25 -3 -50 -9 -55 -14 -6 -4 -40 -13 -75 -19 -36 -7 -83 -15 -105 -19 -23 -4
-47 -11 -55 -16 -8 -6 -42 -13 -75 -16 -33 -4 -98 -15 -145 -24 -47 -9 -107
-20 -135 -25 -27 -4 -95 -16 -150 -25 -123 -20 -204 -32 -316 -44 -47 -6 -97
-15 -113 -20 -15 -6 -55 -11 -89 -11 -34 0 -80 -5 -102 -11 -43 -10 -200 -25
-415 -39 -74 -4 -180 -13 -235 -19 -130 -15 -1218 -15 -1375 -1 -63 6 -173 15
-245 20 -239 16 -290 21 -375 35 -82 13 -189 29 -315 45 -99 13 -195 28 -280
44 -145 26 -259 47 -310 57 -27 6 -73 14 -102 19 -28 4 -58 12 -65 16 -7 4
-30 11 -53 15 -88 17 -141 29 -160 38 -11 6 -36 12 -55 15 -57 7 -134 27 -144
37 -6 5 -22 9 -38 9 -15 0 -42 6 -60 14 -18 8 -53 19 -78 26 -74 19 -208 61
-315 97 -55 19 -111 37 -125 40 -24 4 -34 8 -105 38 -16 7 -55 20 -85 30 -30
10 -59 22 -64 26 -6 5 -19 9 -31 9 -12 0 -25 4 -30 8 -6 5 -32 17 -60 26 -27
10 -72 29 -98 42 -27 13 -55 24 -62 24 -7 0 -37 12 -67 26 -29 15 -62 30 -73
34 -102 41 -580 277 -633 313 -41 28 -43 31 -37 66 6 36 26 104 50 171 7 19
20 58 29 85 22 69 90 265 104 295 6 14 25 63 42 110 17 47 41 105 52 130 11
25 24 54 28 65 10 26 57 132 76 168 8 16 14 35 14 43 0 8 4 14 9 14 5 0 12 12
16 27 7 30 151 322 166 338 5 5 9 15 9 22 0 7 18 42 40 78 22 36 40 71 40 77
0 6 6 19 14 27 7 9 30 46 50 83 19 37 47 86 61 108 14 22 25 43 25 46 0 4 11
22 25 40 14 18 25 35 25 38 0 10 64 111 72 114 4 2 8 8 8 14 0 6 11 26 25 44
14 18 25 36 25 39 0 4 15 27 33 53 17 26 37 55 42 64 28 47 221 324 268 383 4
6 39 53 78 105 73 98 95 126 164 214 122 153 158 196 166 196 5 0 9 5 9 11 0
7 33 48 73 93 40 44 83 95 96 111 55 72 483 519 631 659 187 177 331 308 395
362 39 32 93 78 120 102 88 78 97 86 260 215 88 70 165 131 171 136 127 102
569 421 583 421 5 0 11 4 13 8 3 8 276 192 284 192 2 0 36 22 76 49 40 26 93
59 118 73 25 14 81 48 125 75 44 27 87 52 95 56 8 4 29 16 45 27 17 10 46 27
65 37 19 9 37 20 40 24 3 4 41 26 85 49 44 24 107 58 140 76 152 83 397 208
630 320 101 49 175 84 325 151 30 14 68 31 83 39 16 8 33 14 38 14 6 0 36 12
67 26 31 14 73 32 92 40 19 8 43 19 52 24 10 6 25 10 35 10 9 0 24 6 32 13 9
7 41 21 71 31 30 10 59 23 65 27 5 5 17 9 27 9 10 0 26 4 36 9 32 17 143 61
154 61 5 0 24 6 41 14 41 18 129 50 247 88 52 17 109 37 127 44 17 8 36 14 42
14 6 0 19 4 29 9 9 5 44 17 77 27 33 10 64 22 70 26 5 4 16 8 25 8 8 0 51 11
95 25 44 14 103 31 130 39 28 8 89 26 136 40 47 14 94 26 105 26 11 0 24 4 30
9 9 9 83 29 144 38 19 3 40 9 45 13 6 4 26 11 45 14 37 7 166 37 240 56 25 6
88 20 140 31 52 11 111 24 130 29 19 5 73 16 120 25 47 9 104 20 128 25 23 6
55 10 71 10 17 0 42 5 58 11 15 6 57 14 93 19 36 5 106 16 155 24 211 37 532
77 775 96 74 5 155 14 180 20 25 5 119 12 210 16 91 3 226 9 300 13 201 11
651 11 855 0z"/>
<path d="M22365 9037 c-92 -72 -231 -182 -241 -192 -7 -5 -44 -37 -84 -70 -40
-33 -109 -91 -153 -130 -44 -38 -94 -82 -113 -96 -51 -39 -351 -324 -514 -488
-189 -190 -418 -436 -550 -591 -58 -68 -127 -148 -155 -179 -27 -31 -77 -92
-110 -135 -33 -43 -76 -97 -96 -120 -20 -23 -59 -72 -88 -111 -29 -38 -84
-110 -122 -160 -93 -121 -208 -280 -298 -412 -41 -59 -86 -124 -100 -143 -14
-19 -26 -37 -26 -40 0 -3 -32 -53 -71 -111 -39 -58 -73 -110 -75 -115 -2 -5
-25 -40 -50 -79 -26 -38 -55 -86 -65 -105 -11 -19 -34 -56 -52 -82 -17 -26
-32 -49 -32 -52 0 -4 -18 -36 -40 -72 -22 -36 -40 -68 -40 -70 0 -2 -15 -27
-34 -56 -41 -65 -110 -190 -198 -358 -16 -30 -36 -62 -45 -72 -9 -10 -13 -18
-10 -18 3 0 -9 -28 -27 -62 -33 -62 -70 -135 -149 -295 -22 -46 -44 -83 -48
-83 -5 0 -6 -6 -3 -14 3 -8 1 -17 -5 -21 -6 -3 -11 -14 -11 -24 0 -10 -9 -26
-20 -36 -11 -10 -17 -21 -15 -26 3 -4 1 -10 -5 -14 -5 -3 -10 -14 -10 -24 0
-10 -9 -26 -20 -36 -10 -9 -18 -20 -18 -24 4 -12 -15 -56 -31 -74 -8 -11 -16
-24 -16 -30 -1 -7 -6 -23 -12 -37 -6 -14 -20 -46 -32 -72 -11 -27 -25 -48 -31
-48 -6 0 -10 -6 -8 -12 1 -7 -3 -22 -9 -33 -6 -11 -11 -22 -11 -25 0 -3 -6
-18 -12 -35 -6 -16 -11 -31 -11 -32 1 -7 -33 -80 -42 -92 -7 -7 -12 -19 -12
-25 -2 -27 -19 -73 -36 -94 -10 -13 -16 -29 -13 -37 3 -7 1 -16 -5 -20 -6 -3
-11 -14 -11 -23 0 -10 -8 -28 -17 -42 -9 -13 -18 -35 -19 -48 -2 -14 -8 -30
-13 -35 -6 -6 -11 -19 -11 -28 0 -9 -7 -22 -15 -29 -9 -7 -14 -19 -11 -26 4
-11 -32 -116 -54 -156 -6 -10 -10 -23 -10 -30 0 -7 -7 -26 -16 -43 -9 -16 -17
-37 -18 -45 -4 -30 -19 -76 -46 -145 -15 -38 -36 -97 -45 -130 -10 -33 -22
-71 -28 -85 -5 -14 -11 -32 -12 -40 -2 -14 -28 -94 -42 -130 -3 -8 -7 -22 -8
-30 -4 -36 -36 -130 -44 -130 -4 0 -8 -19 -9 -43 0 -23 -10 -64 -23 -92 -12
-27 -23 -61 -25 -75 -3 -33 -19 -98 -45 -185 -11 -38 -24 -86 -28 -106 -4 -19
-12 -42 -16 -50 -5 -7 -10 -36 -12 -63 -2 -27 -9 -56 -17 -65 -8 -9 -14 -27
-14 -41 1 -41 -20 -139 -36 -171 -8 -17 -13 -36 -10 -44 3 -8 0 -31 -7 -52 -7
-21 -12 -42 -11 -47 5 -16 -22 -106 -31 -106 -5 0 -7 -12 -4 -27 3 -16 2 -46
-3 -68 -5 -22 -13 -71 -20 -109 -6 -39 -14 -75 -18 -80 -4 -6 -7 -27 -8 -46
-1 -64 -32 -240 -44 -255 -7 -8 -9 -26 -6 -42 3 -15 2 -53 -4 -83 -5 -30 -15
-98 -20 -150 -6 -52 -16 -100 -21 -106 -5 -7 -7 -24 -3 -38 8 -32 -14 -227
-28 -243 -5 -7 -8 -22 -6 -35 3 -23 6 -23 135 -26 160 -3 152 -11 164 163 5
66 13 136 19 155 5 19 10 56 10 82 0 25 4 68 9 95 11 54 30 178 41 268 4 33
16 103 25 155 10 52 19 115 22 140 2 25 8 54 13 65 5 11 11 44 15 73 3 29 10
63 14 75 5 12 15 56 21 97 6 41 18 93 26 115 8 23 14 54 14 70 0 16 4 42 9 59
13 43 30 112 42 165 5 25 14 59 19 75 5 17 16 60 25 96 15 65 56 216 80 300
16 52 41 140 56 190 6 19 14 52 20 73 5 21 13 45 18 55 4 9 20 58 36 107 15
50 33 105 41 123 8 18 14 41 14 52 0 10 5 22 10 25 6 3 10 15 10 26 0 10 4 27
10 37 5 9 24 60 41 112 17 52 35 99 40 105 5 5 9 21 9 36 0 15 4 30 9 33 5 4
17 32 27 64 9 31 23 68 30 82 6 14 24 57 39 95 15 39 31 78 36 88 5 9 16 39
25 65 9 26 28 74 43 107 16 33 34 77 40 98 7 20 17 37 22 37 5 0 9 8 9 19 0
10 29 76 65 146 36 69 65 130 65 135 0 15 133 285 142 288 4 2 8 11 8 20 0 17
68 155 130 267 18 33 55 103 82 155 27 52 63 118 79 145 16 28 34 60 39 72 5
11 14 24 19 28 6 3 11 13 11 22 0 9 11 31 25 49 14 18 25 38 25 44 0 6 11 26
25 44 14 18 25 36 25 40 0 4 15 30 33 59 18 29 36 59 41 67 9 20 27 49 51 85
31 47 45 69 52 85 3 8 23 40 43 70 20 30 50 75 66 100 16 25 31 47 34 50 3 3
14 21 24 40 11 19 22 37 25 40 3 3 11 13 16 22 27 47 267 389 390 556 56 75
143 191 153 203 13 16 86 107 179 225 34 44 78 97 99 119 20 22 49 58 65 79
16 21 55 67 86 101 32 34 70 77 84 96 15 19 44 52 65 74 22 22 82 87 134 145
126 138 466 479 610 611 157 144 326 294 380 338 101 81 242 204 246 215 2 6
3 87 2 178 l-3 166 -40 -31z"/>
</g>
</svg>
